<mxfile host="65bd71144e">
    <diagram id="mSSItPkg49ir_ZgxcZMZ" name="Page-1">
        <mxGraphModel dx="1058" dy="773" grid="1" gridSize="10" guides="1" tooltips="1" connect="1" arrows="1" fold="1" page="1" pageScale="1" pageWidth="850" pageHeight="1100" math="0" shadow="0">
            <root>
                <mxCell id="0"/>
                <mxCell id="1" parent="0"/>
                <mxCell id="3" value="USER INTERFACE" style="rounded=1;whiteSpace=wrap;html=1;" parent="1" vertex="1">
                    <mxGeometry x="70" y="290" width="120" height="60" as="geometry"/>
                </mxCell>
                <mxCell id="6" value="&lt;span&gt;MACHINE LEARNING ENGINE&lt;br&gt;&lt;/span&gt;&lt;br&gt;&lt;span&gt;TENSORFLOW&lt;br&gt;+&lt;br&gt;RASA CORE&lt;/span&gt;" style="shape=cylinder3;whiteSpace=wrap;html=1;boundedLbl=1;backgroundOutline=1;size=15;" parent="1" vertex="1">
                    <mxGeometry x="280" y="260" width="140" height="140" as="geometry"/>
                </mxCell>
                <mxCell id="7" value="&lt;span&gt;ACTIONS SERVER&lt;/span&gt;" style="shape=cylinder3;whiteSpace=wrap;html=1;boundedLbl=1;backgroundOutline=1;size=15;" parent="1" vertex="1">
                    <mxGeometry x="520" y="260" width="90" height="120" as="geometry"/>
                </mxCell>
                <mxCell id="10" value="API GATEWAYS&lt;br&gt;(ONLINE SHOP)" style="ellipse;shape=cloud;whiteSpace=wrap;html=1;" parent="1" vertex="1">
                    <mxGeometry x="445" y="450" width="230" height="150" as="geometry"/>
                </mxCell>
                <mxCell id="12" value="" style="shape=flexArrow;endArrow=classic;html=1;fillColor=#008a00;strokeColor=#005700;startArrow=none;startFill=0;" parent="1" edge="1">
                    <mxGeometry width="50" height="50" relative="1" as="geometry">
                        <mxPoint x="354.5" y="200" as="sourcePoint"/>
                        <mxPoint x="355" y="250" as="targetPoint"/>
                    </mxGeometry>
                </mxCell>
                <mxCell id="14" value="" style="shape=flexArrow;endArrow=classic;html=1;fillColor=#008a00;strokeColor=#005700;startArrow=block;" parent="1" edge="1">
                    <mxGeometry width="50" height="50" relative="1" as="geometry">
                        <mxPoint x="209.99999999999994" y="319.5" as="sourcePoint"/>
                        <mxPoint x="280" y="319.5" as="targetPoint"/>
                    </mxGeometry>
                </mxCell>
                <mxCell id="15" value="" style="shape=flexArrow;endArrow=classic;html=1;fillColor=#e3c800;strokeColor=#B09500;startArrow=block;" parent="1" edge="1">
                    <mxGeometry width="50" height="50" relative="1" as="geometry">
                        <mxPoint x="570" y="390" as="sourcePoint"/>
                        <mxPoint x="570" y="460" as="targetPoint"/>
                    </mxGeometry>
                </mxCell>
                <mxCell id="18" value="&lt;h1&gt;AI ASSISTANT CHATBOT&amp;nbsp; OVERVIEW&lt;/h1&gt;" style="text;html=1;strokeColor=none;fillColor=none;spacing=5;spacingTop=-20;whiteSpace=wrap;overflow=hidden;rounded=0;align=center;" parent="1" vertex="1">
                    <mxGeometry x="220" y="50" width="455" height="50" as="geometry"/>
                </mxCell>
                <mxCell id="19" value="TRAINING DATA&lt;br&gt;(CONVERSATIONS)" style="shape=callout;whiteSpace=wrap;html=1;perimeter=calloutPerimeter;" vertex="1" parent="1">
                    <mxGeometry x="290" y="140" width="155" height="80" as="geometry"/>
                </mxCell>
                <mxCell id="20" value="" style="shape=flexArrow;endArrow=classic;html=1;fillColor=#008a00;strokeColor=#005700;startArrow=block;" edge="1" parent="1">
                    <mxGeometry width="50" height="50" relative="1" as="geometry">
                        <mxPoint x="430" y="319.5" as="sourcePoint"/>
                        <mxPoint x="500" y="319.5" as="targetPoint"/>
                    </mxGeometry>
                </mxCell>
                <mxCell id="21" value="SAVED TRAINING DATA" style="shape=datastore;whiteSpace=wrap;html=1;" vertex="1" parent="1">
                    <mxGeometry x="290" y="450" width="130" height="70" as="geometry"/>
                </mxCell>
                <mxCell id="22" value="" style="shape=flexArrow;endArrow=classic;html=1;fillColor=#a20025;strokeColor=#6F0000;startArrow=none;startFill=0;" edge="1" parent="1">
                    <mxGeometry width="50" height="50" relative="1" as="geometry">
                        <mxPoint x="354.86" y="390" as="sourcePoint"/>
                        <mxPoint x="354.86" y="460" as="targetPoint"/>
                    </mxGeometry>
                </mxCell>
                <mxCell id="24" value="&lt;h1&gt;Trained Intents&lt;/h1&gt;&lt;p&gt;&lt;span&gt;add funds&lt;/span&gt;&lt;br&gt;&lt;/p&gt;&lt;p&gt;get balance&lt;/p&gt;&lt;p&gt;explain buying procedure&lt;/p&gt;&lt;p&gt;know pickup locations&lt;/p&gt;&lt;p&gt;open shop&lt;/p&gt;" style="text;html=1;strokeColor=none;fillColor=none;spacing=5;spacingTop=-20;whiteSpace=wrap;overflow=hidden;rounded=0;" vertex="1" parent="1">
                    <mxGeometry x="80" y="560" width="190" height="220" as="geometry"/>
                </mxCell>
            </root>
        </mxGraphModel>
    </diagram>
</mxfile>